{"title":"Lost Civilizations FIXED 20101025","uid":5917543,"size":5411584197,"categoryP":"video","categoryS":"tv_shows","magnet":"?xt=urn:btih:05f0fa1729a4a5302ca4fdd01113525f919553d7&amp;dn=Lost+Civilizations+FIXED+20101025&amp;tr=udp%3A%2F%2Ftracker.openbittorrent.com%3A80&amp;tr=udp%3A%2F%2Fopen.demonii.com%3A1337&amp;tr=udp%3A%2F%2Ftracker.coppersurfer.tk%3A6969&amp;tr=udp%3A%2F%2Fexodus.desync.com%3A6969","seeders":0,"leechers":0,"uploader":"AnoNunga","files":11,"time":1288284088,"description":"This version fixes an audio issue with episode four where the sound cuts out at 42:xx. If there are any further issues please post but Fairly sure there shouldn't be.\n\nEnjoy :)\n\n=========================================\n\nTitle: Lost Civilizations\n\nGenre: Documentary\n\nDescription: Never before could you get this close to 7,000 years of history. Digital effects technology and dramatizations re-create rituals and events, from the bloodletting of Maya kings and a pharaoh's last journey to the secret pleasures of a Roman empress. Original location cinematography in 25 countries takes you from Cuzco in Peru to Petra in Jordan, from ancient Mesopotamia to modern Tibet. Computer graphics restore Egypt's pyramids and the Great Wall of China. \n\nEpisodes:\nPart 1: Mesopotamia: return to Eden. \nPart 2: Ancient Egypt: quest for immortality.\nPart 3: Aegean: legacy of Atlantis. \nPart 4: Greece: a moment of excellence. \nPart 5: China: dynasties of power. \nPart 6: Rome: the ultimate empire. \nPart 7: The Maya: the blood of kings. \nPart 8: The Inca: secrets of the ancestors. \nPart 9: Africa: a history denied. \nPart 10: Tibet: the end of time\n\nMedia Info:\n\nVideo\nID : 0\nFormat : AVC\nFormat/Info : Advanced Video Codec\nCodec ID : H264\nDuration : 50mn 33s\nBit rate : 1 220 Kbps\nWidth : 600 pixels\nHeight : 464 pixels\nDisplay aspect ratio : 1.293\nFrame rate : 25.000 fps\nColor space : YUV\nChroma subsampling : 4:2:0\nBits/(Pixel*Frame) : 0.175\nStream size : 441 MiB (86%)\n\nAudio\nID : 1\nFormat : AC-3\nFormat/Info : Audio Coding 3\nMode extension : CM (complete main)\nCodec ID : 2000\nDuration : 50mn 40s\nBit rate mode : Constant\nBit rate : 192 Kbps\nChannel(s) : 2 channels\nChannel positions : Front: L R\nSampling rate : 48.0 KHz\nBit depth : 16 bits\nStream size : 69.6 MiB (14%)\nAlignment : Aligned on interleaves\nInterleave, duration : 32 ms (0.80 video frame)\nInterleave, preload duration : 32 ms\n\nScreens:  &lt;a href=&quot;\nhttp://i1115.photobucket.com/albums/k559/anonunga/Video%20Screens/LostCivilizationsS01E01avi.jpg&quot; rel=&quot;nofollow&quot; target=&quot;_NEW&quot;&gt;\nhttp://i1115.photobucket.com/albums/k559/anonunga/Video%20Screens/LostCivilizationsS01E01avi.jpg&lt;/a&gt;","torrent":{"xt":"urn:btih:05f0fa1729a4a5302ca4fdd01113525f919553d7","amp;dn":"Lost+Civilizations+FIXED+20101025","amp;tr":["udp%3A%2F%2Ftracker.openbittorrent.com%3A80","udp%3A%2F%2Fopen.demonii.com%3A1337","udp%3A%2F%2Ftracker.coppersurfer.tk%3A6969","udp%3A%2F%2Fexodus.desync.com%3A6969"],"infoHash":"05f0fa1729a4a5302ca4fdd01113525f919553d7","infoHashBuffer":{"type":"Buffer","data":[5,240,250,23,41,164,165,48,44,164,253,208,17,19,82,95,145,149,83,215]},"announce":[],"urlList":[]}}